<svg xmlns="http://www.w3.org/2000/svg" xmlns:xlink="http://www.w3.org/1999/xlink" width="1108.431" height="524.771" viewBox="0 0 1108.431 524.771"><defs><style>.a{fill:url(#a);}.b,.e{fill:none;stroke-miterlimit:10;}.b{stroke:#6d6873;}.c{clip-path:url(#b);}.d{fill:#ffd226;}.e{stroke:#fff;stroke-width:2px;}.f{fill:#fff;}.g{fill:#6d6873;font-size:22px;font-family:Montserrat-ExtraBold, Montserrat;font-weight:800;letter-spacing:0.2em;}.h{fill:#d9c8b9;mix-blend-mode:multiply;isolation:isolate;}.i{fill:#ffc94e;}.j{fill:#ffe494;}.k{fill:#ed925a;}.l{fill:#c9dff0;}.m{fill:#72819e;}.n{fill:#fcb88d;}.o{fill:#4f352e;}.p{fill:#fcdac5;}.q{fill:#e38462;}.r{fill:#753521;}.s{fill:#5c2415;}.t{fill:#de8971;}.u{fill:#364970;}.v{fill:#263c4e;}.w{fill:#34536a;}.x{fill:#cad5de;}.y{fill:#4f3525;}.z{fill:#a9b8c2;}.aa{fill:#654971;}.ab{fill:#ceb4db;}</style><linearGradient id="a" x1="1.369" y1="2.205" x2="0.477" y2="1.428" gradientUnits="objectBoundingBox"><stop offset="0" stop-color="#ffd226"/><stop offset="0.129" stop-color="#ffd226"/><stop offset="0.352" stop-color="#fff"/><stop offset="0.641" stop-color="#fff"/><stop offset="0.982" stop-color="#ffd226"/><stop offset="1" stop-color="#ffd226"/><stop offset="1" stop-color="#0055cb"/></linearGradient><clipPath id="b"><path class="a" d="M318.737,110.635c-415.2,135.962,5.3,430.187,98.761,366.956C495.42,424.878,580.735,24.842,318.737,110.635Z" transform="translate(-138.768 -98.622)"/></clipPath></defs><g transform="translate(-119 -1719.215)"><g transform="translate(123 1723.215)"><path class="b" d="M279,437.293h29.45V371.5" transform="translate(11.653 49.89)"/><line class="b" x2="84.623" transform="translate(124.603 385.201)"/><path class="b" d="M325.047,42h63.639V142.405" transform="translate(23.312 -33.541)"/><line class="b" x2="106.983" transform="translate(41.891 213.358)"/><path class="b" d="M171.011,84h65.153v75.766" transform="translate(-15.691 -22.907)"/><g transform="translate(114.914 79.417)"><g class="c" transform="translate(0 0)"><path class="d" d="M318.737,110.635c-415.2,135.962,5.3,430.187,98.761,366.956C495.42,424.878,580.735,24.842,318.737,110.635Z" transform="translate(-138.768 -98.622)"/><line class="e" x1="147.72" y1="212.319" transform="translate(117.423 -31.263)"/><line class="e" x1="273.769" y1="83.417" transform="translate(-8.627 97.64)"/><line class="e" x1="265.143" y2="68.779" transform="translate(0 181.056)"/><line class="e" x1="155.777" y2="199.167" transform="translate(109.365 181.056)"/></g></g><g transform="translate(218.195 319.73)"><path class="f" d="M190.807,223.9c0,.091-.023.183-.023.276s0,.185.006.276.013.183.021.273c.014.135.031.269.055.4s.059.286.1.426a5.26,5.26,0,0,0,.273.779c.015.036.031.073.048.108.059.125.122.248.188.366.021.038.041.073.063.108a5.431,5.431,0,0,0,.822,1.058c.063.061.127.123.192.182s.119.105.18.157c.04.034.08.065.123.1.09.071.184.14.279.2l.041.029a4.935,4.935,0,0,0,.43.258c.108.059.218.114.332.165l.023.01a5.526,5.526,0,0,0,.778.279c.056.015.114.029.172.043.269.064.546.5.83.521.091.006.183.406.274.406h.277c.091,0,.184-.4.274-.406.283-.021.561-.261.831-.325.056-.014.114-.127.17-.142a5.322,5.322,0,0,0,.778-.328c.008,0,.016-.031.023-.034.127-.058.251-.132.371-.2s.266-.159.391-.243l.043-.031c.1-.065.188-.135.279-.207l.122-.1c.061-.051.123-.105.18-.158.035-.031.069-.063.1-.1a5.368,5.368,0,0,0,.911-1.144c.021-.035.041-.07.061-.108.068-.118.13-.241.189-.366.016-.035.033-.071.048-.108a5.263,5.263,0,0,0,.273-.779c.036-.14.069-.282.1-.426s.043-.266.056-.4c.009-.09.015-.18.02-.273s.008-.183.008-.276,0-.184-.008-.276c0-.049-.006-.1-.01-.145s-.006-.085-.01-.127c-.014-.135-.034-.269-.056-.4s-.059-.286-.1-.425a5.266,5.266,0,0,0-.273-.779c-.015-.036-.031-.073-.048-.108-.059-.125-.122-.248-.189-.367-.02-.036-.04-.071-.061-.106a5.348,5.348,0,0,0-.912-1.147q-.049-.047-.1-.094c-.058-.053-.119-.105-.18-.157l-.122-.1c-.091-.07-.184-.139-.279-.2l-.043-.028a5.311,5.311,0,0,0-.762-.425l-.023-.01a5.263,5.263,0,0,0-.778-.278l-.17-.044a5.339,5.339,0,0,0-.831-.129c-.09-.008-.183-.013-.274-.014h-.277c-.091,0-.183.006-.274.014a5.322,5.322,0,0,0-.83.129l-.172.044a5.368,5.368,0,0,0-.778.278l-.023.01a5.309,5.309,0,0,0-.762.425l-.041.028c-.1.065-.189.134-.279.2-.043.033-.083.065-.123.1-.061.051-.122.1-.18.157l-.1.1a5.372,5.372,0,0,0-.912,1.145c-.021.035-.041.07-.061.106-.068.119-.13.242-.188.367-.009.018-.018.035-.025.053l-.024.055a5.254,5.254,0,0,0-.271.779c-.038.139-.066.282-.093.425-.018.1-.029.2-.04.3-.005.034,0,.066,0,.1a.944.944,0,0,0,.006.1h0C190.834,223.791,190.809,223.848,190.807,223.9Z" transform="translate(-172.048 -218.815)"/><path class="f" d="M190.817,222.749l-.018-.011-.079-.039.014.009A.507.507,0,0,0,190.817,222.749Z" transform="translate(-172.064 -217.832)"/><path class="f" d="M190.8,222.742h0l0,0Z" transform="translate(-172.045 -217.821)"/><path class="f" d="M188.012,238.083c0,.115-.02.118.09.118h17.527c.108,0-.073,0-.073-.118v-5.555c0-.089.115-.183.11-.272a5.216,5.216,0,0,0-3.9-4.946,7.31,7.31,0,0,1-.707.605c-.043.031-.075.07-.118.07h0a6.283,6.283,0,0,1-1.229.744c-.088.039-.538.118-.628.154-.226.089-1.048.4-1.048.4v.149h.39c-.059,0-.081-.115-.142-.1a6.908,6.908,0,0,1-1.444.079,7,7,0,0,1-1.273-.15,6.908,6.908,0,0,1-1.256-.376c-.107-.041-.211-.093-.315-.139a7.348,7.348,0,0,1-1.565-.944,6.951,6.951,0,0,1-.544-.475c-.143.034-.282.071-.42.117l-.1.035c-.153.054-.3.117-.451.185-.033.015-.064.03-.1.046a5.155,5.155,0,0,0-1.43,1.054l-.074.079a5.383,5.383,0,0,0-1.362,3.422c0,.089.059.178.059.267Z" transform="translate(-172.765 -216.664)"/><path class="f" d="M179.126,243.924v0h0c0,.056-.272.112-.274.168-.005.091-.137.183-.137.276s-.065.184-.06.276-.021.183-.013.273c.014.135.016.269.04.4s.049.286.086.426a5.207,5.207,0,0,0,.268.78c.015.036.03.071.046.108.058.124.119.247.187.367.02.035.04.07.063.107a5.3,5.3,0,0,0,.821,1.056c.063.063.127.124.192.183s.119.105.18.157l.122.1c.091.07.184.138.281.2l.041.028c.138.093.282.179.429.258.109.059.219.114.333.165l.023.01a5.175,5.175,0,0,0,.778.278c.056.016.114.03.17.044a5.338,5.338,0,0,0,.831.129c.091.008.183.013.274.014.045,0,.093,0,.139,0s.091,0,.138,0c.091,0,.183-.006.274-.014a5.322,5.322,0,0,0,.83-.129c.058-.014.115-.028.172-.044a5.176,5.176,0,0,0,.778-.278l.023-.01c.127-.058.251-.119.371-.187s.266-.153.392-.237l.04-.028c.1-.066.189-.134.279-.2.043-.033.083-.066.124-.1.06-.051.12-.1.179-.157.035-.031.069-.063.1-.1a5.369,5.369,0,0,0,.911-1.144l.063-.107c.066-.12.129-.243.188-.367l.049-.108a5.519,5.519,0,0,0,.272-.78c.038-.14.069-.282.094-.426s.044-.266.056-.4c.01-.09.016-.18.021-.273s.008-.183.008-.276,0-.184-.008-.276c0-.049-.005-.1-.01-.145s-.006-.085-.011-.127q-.019-.2-.056-.4c-.025-.143-.056-.286-.094-.426a5.517,5.517,0,0,0-.272-.779l-.049-.108c-.059-.125-.122-.247-.188-.367l-.063-.107a5.383,5.383,0,0,0-.912-1.145c-.034-.031-.066-.063-.1-.094-.059-.054-.119-.105-.179-.155-.041-.034-.081-.066-.124-.1-.09-.071-.184-.139-.279-.2l-.04-.029a5.51,5.51,0,0,0-.763-.424l-.023-.01a5.32,5.32,0,0,0-.778-.278c-.056-.016-.114-.03-.172-.045a5.638,5.638,0,0,0-.83-.129c-.091-.006-.183-.011-.274-.013l-.138,0-.139,0c-.091,0-.183.006-.274.013a5.656,5.656,0,0,0-.831.129c-.056.015-.114.029-.17.045a5.318,5.318,0,0,0-.778.278l-.023.01a5.424,5.424,0,0,0-.762.424l-.041.029c-.1.065-.189.133-.281.2-.04.033-.081.065-.122.1-.061.05-.123.1-.18.155-.035.031-.069.064-.1.1a5.364,5.364,0,0,0-.912,1.144c-.021.036-.041.071-.063.107-.066.12-.129.242-.188.367-.009.019-.016.036-.024.054l-.024.054a5.228,5.228,0,0,0-.274.779c-.036.14-.069.283-.094.426-.018.1-.034.2-.045.3,0,.034-.01.068-.014.1a.83.83,0,0,0-.013.1l-.013-.006c-.024-.014-.054-.028-.079-.039l.281.006C178.807,243.9,179.126,243.911,179.126,243.924Z" transform="translate(-175.158 -213.702)"/><path class="f" d="M189.568,247.5a7.225,7.225,0,0,1-.731.6.238.238,0,0,1-.128.064h0a6.254,6.254,0,0,1-1.234.747c-.088.04-.4.123-.5.158a4.1,4.1,0,0,1-.912.1V249h0v.169s-.025.113-.083.127a6.693,6.693,0,0,1-1.415.2,6.556,6.556,0,0,1-2.508-.442c-.107-.041-.206-.079-.311-.125a7.386,7.386,0,0,1-1.563-.937,6.918,6.918,0,0,1-.544-.471c-.143.034-.282.073-.42.119l-.1.035c-.154.055-.306.117-.452.185l-.1.048a5.155,5.155,0,0,0-1.431,1.054c-.026.026-.054.053-.078.079a5.246,5.246,0,0,0-1.217,3.424c-.005.088.2.177.2.266v5.555c0,.114-.293-.125-.184-.125h17.527c.11,0,.2.239.2.125v-5.555c0-.089-.021-.186-.026-.273A5.3,5.3,0,0,0,189.568,247.5Z" transform="translate(-175.834 -211.552)"/><path class="f" d="M202.608,243.8c.005,0,.257,0,.261.008s.234.024.234.035h0c0,.055-.214.112-.217.168-.005.09-.09.183-.09.276s-.059.184-.054.276-.019.183-.01.272c.014.137.018.271.04.4s.05.286.088.426a5.5,5.5,0,0,0,.268.779c.016.036.03.071.048.107.058.127.12.248.187.368.021.035.041.071.061.105a5.351,5.351,0,0,0,.821,1.058c.063.063.127.124.192.183s.119.105.18.157l.123.1c.091.071.184.139.279.2l.041.029c.139.093.283.178.43.258.109.059.219.114.332.165l.023.01a5.332,5.332,0,0,0,.779.278c.056.015.113.03.17.044a5.346,5.346,0,0,0,.83.129c.091.008.183.013.276.014l.138,0,.139,0c.091,0,.183-.006.274-.014a5.322,5.322,0,0,0,.83-.129l.172-.044a5.368,5.368,0,0,0,.778-.278l.023-.01c.127-.058.251-.12.371-.187s.264-.153.391-.237l.041-.029c.1-.065.189-.133.281-.2l.122-.1c.061-.051.122-.1.18-.157.035-.031.069-.064.1-.1a5.414,5.414,0,0,0,.911-1.145c.021-.034.041-.07.061-.105.068-.12.13-.242.188-.368.018-.035.034-.07.049-.107a5.36,5.36,0,0,0,.273-.779c.036-.14.069-.282.094-.426s.043-.266.056-.4c.01-.089.016-.18.02-.272s.008-.183.008-.276,0-.185-.008-.276c0-.049-.005-.1-.009-.147s-.006-.084-.011-.127c-.014-.135-.033-.268-.056-.4s-.058-.286-.094-.426a5.361,5.361,0,0,0-.273-.779c-.015-.036-.031-.071-.049-.108-.058-.125-.12-.247-.188-.366-.02-.036-.04-.073-.061-.106a5.4,5.4,0,0,0-.912-1.147l-.1-.094c-.059-.053-.119-.105-.18-.157l-.122-.1c-.091-.07-.184-.139-.281-.2l-.041-.028a5.313,5.313,0,0,0-.762-.425l-.023-.01a5.518,5.518,0,0,0-.778-.279c-.058-.015-.114-.03-.172-.043a5.018,5.018,0,0,0-.83-.089c-.091-.008-.183.025-.274.025H207.9c-.093,0-.184-.033-.276-.025a5.185,5.185,0,0,0-.83.109c-.058.014-.114.018-.17.033a5.319,5.319,0,0,0-.779.276l-.023.006a5.491,5.491,0,0,0-.762.422l-.041.029c-.1.065-.188.132-.279.2l-.123.1c-.061.05-.122.1-.18.155l-.1.1a5.343,5.343,0,0,0-.911,1.145c-.021.034-.043.07-.063.106-.068.119-.13.241-.188.366l-.026.054c-.008.018-.018.035-.024.054a5.229,5.229,0,0,0-.277.779c-.036.14-.073.282-.1.426-.019.1-.043.2-.055.3-.005.034-.029.069-.033.1a.2.2,0,0,1-.036.068l-.03-.015Z" transform="translate(-169.058 -213.709)"/><path class="f" d="M213.669,247.446a7.6,7.6,0,0,1-.729.627c-.043.031-.086.109-.128.109h0a6.049,6.049,0,0,1-1.233.688c-.09.039-.178.159-.268.193-.226.09-.286.333-.518.333h.515v-.287s-.593.105-.653.118a9.483,9.483,0,0,1-1.7.2,8.4,8.4,0,0,1-1.4-.1,7.589,7.589,0,0,1-1.32-.351c-.107-.041-.242-.081-.347-.128a7.48,7.48,0,0,1-1.58-.939c-.188-.148-.378-.3-.553-.471-.142.033-.286.071-.424.118l-.105.035c-.154.055-.3.117-.451.185-.034.015-.064.031-.1.048a5.156,5.156,0,0,0-1.426,1.054c-.025.025-.044.053-.069.079a5.307,5.307,0,0,0-1.292,3.423c0,.089.138.178.138.267V258.2c0,.114-.178-.034-.069-.034h17.527c.109,0,.086.148.086.034v-5.555c0-.089.036-.174.031-.262A5.24,5.24,0,0,0,213.669,247.446Z" transform="translate(-169.742 -211.568)"/><path class="f" d="M202.576,250.432l.167-.209c.316-.4-.18-.979-.576-1.295l-5.7-4.2v-6.738c0-.5.456-.991-.039-.991h-.311a.988.988,0,0,0-.9.991v6.434l-5.653,4.5a.925.925,0,0,0-.145,1.295l.168.209a.924.924,0,0,0,1.295.147l5.2-4.144,5.2,4.144A.924.924,0,0,0,202.576,250.432Z" transform="translate(-172.446 -214.21)"/></g><g transform="translate(293.804 0)"><text class="g" transform="translate(29 17)"><tspan x="-28.204" y="0">01</tspan></text></g><g transform="translate(104.491 54.138)"><text class="g" transform="translate(29 17)"><tspan x="-32.472" y="0">02</tspan></text></g><g transform="translate(0 202.922)"><text class="g" transform="translate(29 17)"><tspan x="-32.516" y="0">03</tspan></text></g><g transform="translate(80.297 372.763)"><text class="g" transform="translate(29 17)"><tspan x="-34.87" y="0">04</tspan></text></g><g transform="translate(245.395 477.054)"><text class="g" transform="translate(29 17)"><tspan x="-32.824" y="0">05</tspan></text></g><g transform="translate(340.382 101.948)"><path class="f" d="M255.476,97.983l6.063-6.063-6.063-6.063.977-.977a4.335,4.335,0,0,0-6.13-6.13l-.977.977-6.063-6.063-1.789,1.789v2.828a7.194,7.194,0,0,1,0,14v8.769h-5.248l-1.046,1.046,8.084,8.083,6.063-6.063.842.842a4.335,4.335,0,0,0,6.13-6.13Zm0,0" transform="translate(-212.818 -66.654)"/><path class="f" d="M25.818,31.534V22.96h1.191a4.335,4.335,0,1,0,0-8.669H25.818V5.716H17.243V4.335a4.335,4.335,0,1,0-8.669,0V5.716H0V14.29H1.191A4.341,4.341,0,0,1,5.44,17.769a1.467,1.467,0,0,1,0,1.712A4.342,4.342,0,0,1,1.191,22.96H0v8.574H8.574V30.152a4.335,4.335,0,0,1,8.669,0v1.382Zm0,0"/></g><g transform="translate(236.182 155.267)"><path class="f" d="M19.339,0A19.339,19.339,0,1,0,38.678,19.339,19.361,19.361,0,0,0,19.339,0Zm7.688,20.017L15.746,27.269a.806.806,0,0,1-1.242-.678v-14.5a.806.806,0,0,1,1.242-.678l11.281,7.252a.806.806,0,0,1,0,1.355Z"/></g><path class="f" d="M46.288,16.35V12.223A3.227,3.227,0,0,0,43.065,9H27.393a2.134,2.134,0,0,0-1.519.63L5.459,30.044a2.15,2.15,0,0,0,0,3.039L22.205,49.829a2.15,2.15,0,0,0,3.039,0L35.656,39.417a8.194,8.194,0,0,0,6.334,3.428c5.332,0,9.67-6.266,9.67-13.968C51.66,23.507,49.568,18.68,46.288,16.35ZM41.99,40.7c-4.147,0-7.521-5.3-7.521-11.819a15.344,15.344,0,0,1,2.607-8.906A1.075,1.075,0,0,0,35.342,18.7a14.685,14.685,0,0,0-1.963,3.837,4.289,4.289,0,1,1,4.35.639,14.571,14.571,0,0,0-1.112,5.7,13.179,13.179,0,0,0,2.08,7.5l6.961-6.961a2.134,2.134,0,0,0,.63-1.519V19.221a14.754,14.754,0,0,1,3.223,9.657C49.511,35.395,46.137,40.7,41.99,40.7Z" transform="translate(162.084 228.867)"/><g transform="translate(324.032 394.962)"><g transform="translate(16.212 14.971)"><path class="f" d="M200.963,181a4.963,4.963,0,1,0,4.963,4.963A4.968,4.968,0,0,0,200.963,181Z" transform="translate(-196 -181)"/></g><path class="f" d="M41.313,17.47l-3.3-.536a17.2,17.2,0,0,0-1.936-4.666l1.895-2.655a1.24,1.24,0,0,0-.132-1.6L34.335,4.506a1.236,1.236,0,0,0-1.6-.132L30.082,6.269a17.2,17.2,0,0,0-4.666-1.936l-.536-3.3A1.24,1.24,0,0,0,23.656,0H18.694A1.24,1.24,0,0,0,17.47,1.037l-.536,3.3a17.2,17.2,0,0,0-4.666,1.936L9.613,4.374a1.236,1.236,0,0,0-1.6.132L4.506,8.015a1.24,1.24,0,0,0-.132,1.6l1.895,2.655a17.2,17.2,0,0,0-1.936,4.666l-3.3.536A1.24,1.24,0,0,0,0,18.694v4.963A1.24,1.24,0,0,0,1.037,24.88l3.3.536a17.2,17.2,0,0,0,1.936,4.666L4.374,32.737a1.24,1.24,0,0,0,.132,1.6l3.509,3.509a1.244,1.244,0,0,0,1.6.132l2.655-1.895a17.2,17.2,0,0,0,4.666,1.936l.536,3.3a1.24,1.24,0,0,0,1.224,1.037h4.963a1.24,1.24,0,0,0,1.224-1.037l.536-3.3a17.2,17.2,0,0,0,4.666-1.936l2.655,1.895a1.245,1.245,0,0,0,1.6-.132l3.509-3.509a1.24,1.24,0,0,0,.132-1.6l-1.895-2.655a17.2,17.2,0,0,0,1.936-4.666l3.3-.536a1.24,1.24,0,0,0,1.037-1.224V18.694A1.24,1.24,0,0,0,41.313,17.47ZM21.175,34.823A13.648,13.648,0,1,1,34.823,21.175,13.663,13.663,0,0,1,21.175,34.823Z"/><g transform="translate(12.908 24.627)"><path class="f" d="M170.053,297.732a7.345,7.345,0,0,1-11.463,0,8.752,8.752,0,0,0-2.536,3.987,11.03,11.03,0,0,0,16.534,0A8.751,8.751,0,0,0,170.053,297.732Z" transform="translate(-156.055 -297.732)"/></g></g></g><rect class="f" width="343.649" height="239.755" rx="119.878" transform="translate(437.127 1874.734)"/><g transform="translate(781.064 1790.871)"><g transform="translate(46.312 84.943)"><ellipse class="h" cx="198.415" cy="27.196" rx="198.415" ry="27.196" transform="translate(3.224 311.663)"/><path class="i" d="M3181.123,534.984c133.808-5.679,167.552,263.657,156.344,314.091s-156.983,51.875-214.385,51.875-181.866-3.723-175.672-95.045c3.1-45.661,31.9-71.994,59.927-86.912,31.463-16.746,53.816-46.779,62.275-81.4C3080.733,592.07,3109.124,538.04,3181.123,534.984Z" transform="translate(-2947.187 -534.896)"/><path class="j" d="M3228.007,568.177s66.844,26.427,68.4,121.253-41.82,68.929-94.442,70.358c-54.23,1.474-157.363,5.218-132.445-6.749s45.873-32.5,54.793-46.535C3150.726,664.956,3123.855,561.958,3228.007,568.177Z" transform="translate(-3005.824 -539.591)"/><path class="k" d="M2947.189,848.806c19.324,63.32,122.048,66.254,172.67,66.254,57.4,0,203.177-1.441,214.385-51.875,6.965-31.34-3.439-147.2-44.415-229.076,28.023,76.083,57.312,174.345,21.758,219.672C3275.22,900.144,3034.191,910.369,2947.189,848.806Z" transform="translate(-2943.965 -549.006)"/></g><g transform="translate(121.739)"><g transform="translate(17.264 142.284)"><path class="l" d="M3278.259,601.744s-11.552,3.755-13.935,7.095-32.174,85.472-32.174,85.472L3205.5,746.8l10.125,2.044s43.141-55.956,40.37-61.21,29.532-59.439,27.422-62.425S3278.259,601.744,3278.259,601.744Z" transform="translate(-3205.496 -601.744)"/><path class="m" d="M3260.709,690.133c-1.125-2.133,13.232-21.064,16.4-34.189a323.527,323.527,0,0,1,.477-36.6L3255.6,690.6l-9.122,3.1s6.872,2.094,6.03,6.27-34.593,50.884-34.593,50.884l2.427.49S3263.481,695.387,3260.709,690.133Z" transform="translate(-3210.214 -604.248)"/></g><g transform="translate(123.956 134.1)"><g transform="translate(68.056 28.859)"><path class="n" d="M3052.389,648.7l5.932-8.948,24.988.873s3.34,8.114,1.694,7.884-3.873,13.237-3.873,13.237l-22.674.889-5.022-6.908-11.813,6.6.421-6.981Z" transform="translate(-3041.621 -627.824)"/><g transform="translate(17.013 0)"><path class="o" d="M3043.866,663.884l17.368.828,5.529-35.33-25.04-1.193Z" transform="translate(-3040.025 -626.179)"/><path class="p" d="M3051.764,646.849c-.464-2.985-1.223-5.971-1.187-8.907a3.047,3.047,0,0,1,.967-.275c2.653.127,4.633,3.819,4.422,8.247-.164,3.438-1.611,6.252-3.486,7.307A37.333,37.333,0,0,0,3051.764,646.849Z" transform="translate(-3036.839 -627.527)"/><path class="p" d="M3060.884,642.346c-.23,2.985.6,5.968,1.131,8.82.387,2.123.766,4.248,1.039,6.383a3.1,3.1,0,0,1-1.175.335c-2.653-.126-4.633-3.819-4.422-8.248C3057.619,646.231,3059.035,643.424,3060.884,642.346Z" transform="translate(-3049.798 -628.193)"/><rect class="p" width="17.429" height="1.496" transform="translate(21.178 39.773) rotate(-177.271)"/><rect class="p" width="28.468" height="1.496" transform="matrix(-0.999, -0.048, 0.048, -0.999, 28.436, 3.283)"/><rect class="p" width="4.293" height="0.688" transform="translate(9.692 0.892) rotate(-177.271)"/></g><path class="q" d="M3071.015,639.62l4.877.351,1.413.646s2.391,2.155-.938,2.854c-.336.071-1.182,1.254-1.182,1.254s.957,8.9-.786,9.928-9.462.245-10.338-.534.069-5.474.069-5.474Z" transform="translate(-3053.228 -627.805)"/><path class="n" d="M3048.108,639.6s-3.943,1.181-5.336,2.234.891,3.4.891,3.4l1.172,3.719s-2.135,8.478-1.047,10.094,3.422,1.42,3.422,1.42,2.3-12.048,2.582-12.1-.292-3.879-.716-4.062S3048.108,639.6,3048.108,639.6Z" transform="translate(-3006.628 -627.802)"/></g><path class="l" d="M3090.631,592.2s11,5.163,12.945,8.772.116,64.84.116,64.84l54.3-22.724,1.294,10.249s-58.976,38.912-64.012,35.762-15.142-71.56-12.677-74.261S3090.631,592.2,3090.631,592.2Z" transform="translate(-3082.218 -592.203)"/><path class="m" d="M3091.031,691.7c-2.927-1.44-7.307-21.8-8.813-35.215,3.149-17.307,7.644-46.029,7.644-46.029l2.01,76.18,3.762-8.87s1.584,7.007,5.809,6.474,53.289-30.759,53.289-30.759l.311,2.458S3097.206,694.737,3091.031,691.7Z" transform="translate(-3077.973 -594.798)"/></g><g transform="translate(74.799 125.434)"><path class="l" d="M3183.184,582.1s31.372,9.633,34.209,16.4-8.993,35.062-12.3,45.938,4.739,44.687,4.739,44.687c-13.273,16.289-19.417,17.355-41.9,17.391,0,0-10.6-46.4-12.248-52.072-.4-1.381-8.81-7.868-7.307-13.741C3156.559,608.737,3152.293,589.61,3183.184,582.1Z" transform="translate(-3148.193 -582.1)"/><path class="m" d="M3192.963,650.246c6.891-.134-5.513,8.823-6.75,10.833s16.325-5.568,22.908-6.631-18.506,9.885-24.867,9.152,5.723-10.512,2.64-9.6-17.031,10.2-15.2,7.089C3172.364,659.951,3186.072,650.379,3192.963,650.246Z" transform="translate(-3160.594 -591.791)"/><path class="m" d="M3157.925,683.174c3.667,15.55,8.679,37.48,8.679,37.48,9.976-.015,16.73-.243,22.323-1.9a229.563,229.563,0,0,0,19.23-17c-.027-.122-.066-.3-.1-.441-5.805,3.667-27.174,16.512-35.57,12.458-9.756-4.712-14.52-32.275-14.52-32.275S3157.947,682.135,3157.925,683.174Z" transform="translate(-3146.869 -596.236)"/></g><path class="m" d="M3187.186,577.321s9.682,1.013,11.8,4.1,4.448,13.379,4.448,13.379l-5.3,34.079s-12.952-14.333-13.221-13.377-9.536,7.644-9.536,7.644S3172.53,581.5,3187.186,577.321Z" transform="translate(-3082.126 -455.987)"/><path class="q" d="M3187.935,556.736s10.037,29.555,10.9,30.166-11.334,30.553-13.178,22-4.695-47.494-4.287-50.124S3187.935,556.736,3187.935,556.736Z" transform="translate(-3082.874 -453.051)"/><g transform="translate(34.395)"><path class="r" d="M3163.628,462.845s-9.562-17.194,0-21.608,22.08-7.2,23.49-3.951,12.793,17.892,11.864,25.559-30.971,9.294-30.971,9.294Z" transform="translate(-3098.592 -435.87)"/><path class="s" d="M3195.141,461.859c-3.443,8.32-16.5,5.594-16.5,5.594s6.528-2.049,10.909-5.594-1.508-14.777-1.508-14.777c2.8,14.49-13.9,15.494-13.9,15.494,2.672-1.148,5.374-15.638,5.374-15.638-1.711,4.3-9.374,8.465-9.374,8.465-2.765-10.9,10.04-16.929,10.04-16.929-14.242,4.3-14.88,12.947-14.88,12.947-1.435-2.4,1-8.356,1-8.356a19.625,19.625,0,0,0-6.627,3.429c-.9,3.717.388,8.423,1.737,11.908a128.992,128.992,0,0,0,16.518,13.133c8.84-1.17,20.454-3.6,21.027-8.32.3-2.464-.681-5.649-2.187-8.944A23.986,23.986,0,0,1,3195.141,461.859Z" transform="translate(-3098.57 -436.24)"/><g transform="translate(10.773 90.872)"><path class="n" d="M3258.776,544.188s-10.16-4.534-12.155-1.085-2.519,10.621,5.887,12.157,8.772-6.771,8.772-6.771Z" transform="translate(-3245.387 -541.809)"/><path class="q" d="M3261.543,553.24a17.193,17.193,0,0,1-8.562-.877c-8.489-2.741-3.753-9.734-3.646-9.889,0,0-.3.289-.7.686-1.994,3.449-2.551,10.659,5.854,12.2C3258.162,556.028,3260.3,554.816,3261.543,553.24Z" transform="translate(-3247.364 -541.903)"/><path class="t" d="M3257.779,549.5a4.167,4.167,0,0,0-1.335-1.726,6.01,6.01,0,0,0-2.158-1.111,6.593,6.593,0,0,0-4.864.131.274.274,0,0,0-.132.412.356.356,0,0,0,.211.137c1.5.37,2.881.484,4.2.745a9.511,9.511,0,0,1,3.565,1.672.381.381,0,0,0,.451,0A.222.222,0,0,0,3257.779,549.5Z" transform="translate(-3245.208 -542.443)"/><path class="t" d="M3254.379,547.42a7.572,7.572,0,0,0-1.906,1.31,1.818,1.818,0,0,0-.644,2.043.345.345,0,0,0,.414.141.26.26,0,0,0,.195-.254c-.071-.973,1.491-1.587,2.658-1.894a.749.749,0,0,0,.614-.94.954.954,0,0,0-1.135-.479A1.129,1.129,0,0,0,3254.379,547.42Z" transform="translate(-3245.272 -542.591)"/></g><path class="n" d="M3182.424,483.735c0,4.934,0,61.182,3.658,67.827s10.612,15.273,14.559,18.234,19.7,16.45,28.882-.186c6.5-11.768,24.669-30.667,15.951-43.778-8.65-13.008-14.661-47.574-18.8-53.947S3182.424,483.735,3182.424,483.735Z" transform="translate(-3167.121 -440.799)"/><path class="q" d="M3252.831,516.9c-3.806-9.583-7-22.149-9.671-31.676l-19.874-12.157c-6.152,1.793-13,4.381-18.508,6.613l-10.388,7.844c.009,3.092-3.964,8.165-3.89,13.763l4.485-.659s9.98-7.021,14.6-6.467C3212.63,494.522,3236.744,507.852,3252.831,516.9Z" transform="translate(-3179.082 -441.159)"/><path class="r" d="M3186.129,482.554s18.8,12.3,28.278,14.079,27.384,27.313,27.384,27.313,11.885-10.555,13.366-32.174-17.763-36.986-17.763-36.986-59.415-8.239-65.931,18.119-4.977,41.589,5.568,54.527c0,0-9.4-25.35,3.511-38.388C3185.152,484.39,3186.129,482.554,3186.129,482.554Z" transform="translate(-3161.822 -438.387)"/><path class="s" d="M3250.25,476.811l-.4-.791c5.28,11.187-7.857,47.9-7.857,47.9-.905-8.325-25.573-24.24-25.573-24.24-9.131-1.978-26.78-15.37-26.78-15.37l13.541-8.065c-10.651-1.065-17.043,1.37-29.273,12.935-6.946,6.567-6.962,18.575-5.683,27.732a40.277,40.277,0,0,0,7.365,13.712s-9.4-25.35,3.511-38.388c4.609-4.654,5.587-6.49,5.587-6.49s18.8,12.3,28.278,14.079,27.384,27.313,27.384,27.313,11.885-10.555,13.366-32.174A37.752,37.752,0,0,0,3250.25,476.811Z" transform="translate(-3160.376 -441.58)"/><g transform="translate(71.005 77.144)"><path class="n" d="M3177.719,528.177s10.133-4.521,12.121-1.082,2.511,10.593-5.871,12.125-8.75-6.753-8.75-6.753Z" transform="translate(-3175.22 -525.804)"/><path class="q" d="M3175.246,537.2a17.155,17.155,0,0,0,8.539-.873c8.466-2.734,3.742-9.708,3.636-9.863,0,0,.3.287.7.684,1.988,3.44,2.543,10.63-5.839,12.162C3178.618,539.984,3176.486,538.775,3175.246,537.2Z" transform="translate(-3173.536 -525.898)"/><path class="t" d="M3179.925,533.479a4.148,4.148,0,0,1,1.332-1.721,5.977,5.977,0,0,1,2.151-1.108,6.574,6.574,0,0,1,4.852.131.274.274,0,0,1,.132.411.363.363,0,0,1-.211.136c-1.5.368-2.873.482-4.187.744a9.487,9.487,0,0,0-3.555,1.667.379.379,0,0,1-.45,0A.222.222,0,0,1,3179.925,533.479Z" transform="translate(-3176.61 -526.436)"/><path class="t" d="M3184.061,531.4a7.513,7.513,0,0,1,1.9,1.306,1.812,1.812,0,0,1,.642,2.038.345.345,0,0,1-.413.141.261.261,0,0,1-.194-.254c.071-.97-1.487-1.583-2.651-1.889a.747.747,0,0,1-.612-.937.949.949,0,0,1,1.131-.478A1.089,1.089,0,0,1,3184.061,531.4Z" transform="translate(-3177.292 -526.584)"/></g><path class="s" d="M3219.732,534.813c.81,3.242.135,6.2-1.51,6.614s-3.633-1.884-4.443-5.125-.135-6.2,1.509-6.613S3218.922,531.572,3219.732,534.813Z" transform="translate(-3166.001 -449.206)"/><path class="s" d="M3251.784,539.8c.81,3.242.024,6.23-1.757,6.675s-3.882-1.821-4.692-5.063-.024-6.23,1.757-6.674S3250.974,536.562,3251.784,539.8Z" transform="translate(-3225.117 -449.923)"/><path class="q" d="M3207.863,575.078s5.826-2.645,10.812-2.645,14.523-2.6,14.523-2.6-.912,1.273-2.384,2.989c-3.234,3.77-8.061,8.2-12.976,7.453-7.154-1.084-8.7-4.448-8.7-4.448s5.636,2.677,9.538,2.244,9.1-5.419,9.1-5.419S3214.8,576.813,3207.863,575.078Z" transform="translate(-3174.344 -454.922)"/><path class="q" d="M3229.981,554.466s-3.723,6.746-1.288,7.606,8.177,0,8.177,0-6.889.431-7.032-1.865A50.007,50.007,0,0,1,3229.981,554.466Z" transform="translate(-3195.173 -452.736)"/><path class="r" d="M3244.77,521.9s4.249-7.38,6.374-7.6,4.919,1.789,4.919,1.789a30.585,30.585,0,0,0-4.7-.56C3249.325,515.5,3244.77,521.9,3244.77,521.9Z" transform="translate(-3228.865 -447.021)"/><path class="r" d="M3207.864,513.687s4.025-3.561,8.385-3.561,14.451,4.361,14.451,4.361-13.108-4.026-15.681-3.242S3207.864,513.687,3207.864,513.687Z" transform="translate(-3171.847 -446.43)"/><path class="u" d="M3215.077,551.133c6.617-3.014,8.772-12.076,9.466-18.169,3.9,5.8,11.216,14.612,19.841,14.879.092,0,.185,0,.271,0,12.652,0,18.763-27.086,19.425-30.195a1.769,1.769,0,0,0-2.16-2.078l-39.018,9.846-31.758,3.588a1.764,1.764,0,0,0-1.314,2.666c1.361,2.245,12.477,20.12,22.182,20.12A7.31,7.31,0,0,0,3215.077,551.133Zm6.236-22c-.23,5.655-1.843,16.12-7.7,18.787-5.077,2.323-13.918-7.623-19.276-15.724Zm38.654-9.43c-2.26,8.814-7.866,24.612-15.312,24.612-.055,0-.11,0-.16,0-8.409-.257-15.95-11.4-18.711-16Z" transform="translate(-3189.578 -447.198)"/></g><g transform="translate(0 265.7)"><path class="n" d="M3282.216,764.218s-5.5,94.555-7.97,101.27a54.755,54.755,0,0,0-2.819,18.361,53.027,53.027,0,0,0,2.819,14.927c1.711,4.955,7.062,15,2.827,22.5s0,7.97,0,7.97,20.146,7.97,19.209-16.41,3.661-22.5,4.175-27.661-5.113-3.282-9.332-9.846-3.282-21.566.468-30.474,18.826-46.885,18.556-63.762-9.426-28.7-8.912-33.86S3282.216,764.218,3282.216,764.218Z" transform="translate(-3271.412 -745.741)"/><path class="q" d="M3272.293,764.1s19.976-22.878,19.463-17.72,8.2,17.72,8.469,34.6-14.8,54.854-18.556,63.762-4.688,23.911-.468,30.474,9.846,4.689,9.332,9.846c-.364,3.652-2.77,3.821-3.813,12.241l-5.959-.667s-1.826-27.879-4.324-44.766,9.493-47.46,9.493-47.46c6.883-27.3.006-30.544-14.517-22.132C3271.964,771.491,3272.293,764.1,3272.293,764.1Z" transform="translate(-3261.489 -745.622)"/><path class="v" d="M3290.938,905.269c-.576,3.313-2.446,9.731-2.574,13.091-.187,4.853,3.179,16.858.357,19.135s-15.344,8.314-15.344,8.314-6.014,3.823-3.765,6.294,13.962,3.607,19.11,1.71,10.842-12.144,10.842-12.144-4.933-17.836-3.8-21.252,12.062,10.246,12.062,10.246l1.98-8.727-11.385-9.488s3.795-1.518,2.657-7.211-9.8-6.853-9.8-6.853S3291.233,903.571,3290.938,905.269Z" transform="translate(-3269.093 -767.348)"/></g><g transform="translate(14.468 293.491)"><path class="n" d="M3197.905,778.021s-18.924,12.448-17.49,21.544,67.606,40.139,75.449,70.964c0,0-2.777,12.691,12.443,39.372l-7.287,10.065s19.174,5.115,21.318-7.21-5.292-19.207-3.887-25.819-1.036-15.847-1.036-15.847-16.684-.878-19.81-16.316-18.19-48.3-24.931-54.924S3197.905,778.021,3197.905,778.021Z" transform="translate(-3180.338 -778.021)"/><path class="q" d="M3229.188,778.021s21.9,11.88,31.63,19.213a45.874,45.874,0,0,0-10.69-1.7c-14.405-.529-28.252,4.254-28.252,4.254s66.989,49.06,65.273,70.736c-7.843-30.825-74.014-61.867-75.449-70.964S3229.188,778.021,3229.188,778.021Z" transform="translate(-3211.621 -778.021)"/><path class="v" d="M3181.143,891.471c-.146,3.261-1.177,9.68-.875,12.928.437,4.692,5.311,15.791,2.806,18.353s-14.145,10.021-14.145,10.021-5.472,4.471-2.927,6.549,14.3,1.625,19.161-.879,9.191-13.108,9.191-13.108-7.175-16.5-6.484-19.934,13.269,8.26,13.269,8.26l.844-8.655-12.5-7.619s3.567-1.961,1.709-7.284-10.588-5.3-10.588-5.3S3181.219,889.8,3181.143,891.471Z" transform="translate(-3086.715 -793.208)"/></g><g transform="translate(9.418 230.831)"><path class="w" d="M3278.438,744.2s7.709,26.486-12.9,34.24c-41.41,15.581-55.528,3.613-82.891,9.413,0,0-24.015-16.176-34.243-20.56s-20.551-8.877-20.551-8.877-4.031-21.34,63.926-29.76c36.607-4.536,45.581-14.828,61.09-23.683C3252.869,704.972,3274.01,727.267,3278.438,744.2Z" transform="translate(-3127.348 -704.972)"/><path class="v" d="M3197.266,759.354c-9.43-23.95-6.267-34.954-23.907-35.663,0,0-42.8,17.641-45.34,18.459s22.755-21.741,22.755-21.741l-3.657-1.614c9.172-4.337,15.444-9.267,23.424-13.823,0,0,16.186,17.069,23.2,32.681a42.236,42.236,0,0,1,2.371,6.547A43.757,43.757,0,0,1,3197.266,759.354Z" transform="translate(-3045.021 -704.972)"/><path class="v" d="M3189.012,748.286c10.824-3.047,56.437-14.739,58.762-10.784,6.127,10.422-38.061,20.418-8.562,44.112,3.244,2.606,28.364,4.5,49.112,8.7-17.369.113-32.667-1.382-48.864,2.051-8-5.269-25.4-16.77-34.244-20.56-10.228-4.385-20.55-8.877-20.55-8.877S3181.978,756.3,3189.012,748.286Z" transform="translate(-3184.162 -709.483)"/></g></g><g transform="translate(0 324.401)"><rect class="x" width="282.818" height="9.554" transform="translate(0 0)"/><rect class="y" width="237.269" height="9.554" transform="translate(24.191 54.467)"/><rect class="y" width="19.049" height="117.277" transform="translate(16.546 9.555)"/><rect class="y" width="19.049" height="117.277" transform="translate(251.935 9.555)"/></g><g transform="translate(29.084 235.96)"><path class="z" d="M0,0H164.544a5.17,5.17,0,0,1,5.17,5.17V5.162a0,0,0,0,1,0,0H4.167A4.167,4.167,0,0,1,0,.994V0A0,0,0,0,1,0,0Z" transform="translate(9.813 83.35)"/><path class="aa" d="M3279.455,796.074h119.509a3.026,3.026,0,0,0,3.069-3.481l-9.37-78.16a4.038,4.038,0,0,0-3.9-3.482H3269.251a3.027,3.027,0,0,0-3.07,3.482l9.37,78.16A4.038,4.038,0,0,0,3279.455,796.074Z" transform="translate(-3266.156 -710.951)"/><path class="ab" d="M3357.786,764.057a6.792,6.792,0,0,1-8.552,7.042,11.543,11.543,0,0,1-8.8-10.651,6.792,6.792,0,0,1,8.552-7.041A11.544,11.544,0,0,1,3357.786,764.057Z" transform="translate(-3285.601 -716.963)"/></g></g></g></svg>