<svg xmlns="http://www.w3.org/2000/svg" width="163.501" height="448.094" viewBox="0 0 163.501 448.094"><defs><style>.a{font-size:20px;}.a,.b{font-family:SegoePrint-Bold, Segoe Print;font-weight:700;opacity:0.25;}.b{font-size:13px;}.c{fill:#263c4e;}.d{fill:#72819e;}.e{fill:#34536a;}.f{fill:#ab9f9d;}.g{fill:#f0e5e1;}.h{fill:#e38462;}.i{fill:#fcb88d;}.j{fill:#de8971;}.k{fill:#5c2415;}.l{fill:#753521;}.m{fill:#fff;}</style></defs><g transform="translate(-362.758 -3275.959)"><text class="a" transform="translate(441.162 3382.258) rotate(-51)"><tspan x="3.323" y="25">Features</tspan></text><text class="b" transform="translate(464.394 3307.533) rotate(-72)"><tspan x="-27.438" y="0">Features</tspan></text><g transform="translate(362.758 3320.806)"><g transform="translate(15.47 196.51)"><g transform="translate(0 167.933)"><path class="c" d="M1136.737,2042.963l2.176,5.953-5.33,5.009,2.615,9.058s-2.84,10.322-7.905,10.322-18.442-3.86-18.053-11.866,8.573-10.308,8.573-10.308-5.845-14.4,1.558-16.376S1136.737,2042.963,1136.737,2042.963Z" transform="translate(-1110.232 -2034.501)"/><path class="d" d="M1131.982,2055.088l-13.787-1.965,4.6,2.737-4.6,1.841,13.611,2.794-3.486-2.794Z" transform="translate(-1108.454 -2041.071)"/></g><g transform="translate(75.006 170.75)"><path class="c" d="M1003.145,2060.463c-3.084,3.574-32.016,4.261-36.2,3.265s-9.44-5.11-9.44-5.11l-1.512,4.708-13.839-2.194L942.12,2058s-8.533-1.788-4.76-6.2c1.481-1.732,4.665-7.794,8-10.156,5.159-3.656,11.01-3.255,14.035-1.452,4.981,2.97,16.257,10.391,16.257,10.391S1007.006,2055.989,1003.145,2060.463Z" transform="translate(-936.397 -2038.852)"/><path class="e" d="M989,2056.571l-5.287,4.285,1.188-3.453-6.733,2.735,6.788-5.9,2.456,2Z" transform="translate(-948.962 -2044.281)"/><path class="e" d="M944.711,2069.614s5.894-1.019,5.908-1.828-12.255-5.08-12.255-5.08,9.8,4.292,7.646,5.623S944.711,2069.614,944.711,2069.614Z" transform="translate(-884.815 -2047.268)"/><path class="e" d="M1025.081,2055.062a6.751,6.751,0,0,0-.773,3.041c.483,2.1,7.856,1.852,7.856,1.852s-9.125,2.409-8.755-1.38a11.65,11.65,0,0,1,2.42-5.563A5.607,5.607,0,0,0,1025.081,2055.062Z" transform="translate(-1021.393 -2043.848)"/></g><path class="c" d="M1048.75,1775.017s21.35,164.944,27.012,176.85H1058.25s-21.5-51.665-18.74-64.221-9.222-45.907-9.222-45.907l-5-40.952s-20.347-13.6-22.028-24.486C1003.256,1776.3,1036.866,1787.239,1048.75,1775.017Z" transform="translate(-977.516 -1775.017)"/><path class="e" d="M1115.561,1778.116l-21.352,25.694-4.545,18.348-16.715,129.709H1057.8s-6.769-54.936-5.968-63.374,4.851-25.051,4.851-25.051.548-75.56,6.334-88.425C1063.021,1775.017,1100.767,1781.3,1115.561,1778.116Z" transform="translate(-1049.045 -1775.017)"/></g><g transform="translate(22.935 77.607)"><path class="f" d="M1028.949,1614.012s6.343,3.14,8.354,7.809,5.46,19.325,7.184,23.348,3.736,28.449,3.448,29.31-14.153,4.311-16.7,0-8.914-31.733-8.606-33.539-.236-23.125-.236-23.125Z" transform="translate(-969.898 -1599.308)"/><path class="g" d="M1066.927,1591.293s-19.69,18.777-23.437,21.327,3.427,18.5,6.054,47.638a229.38,229.38,0,0,1-.634,48.485s17.094,13.265,50.423,7.12c14.331-2.643,5.344-51.768,6.084-70.235.981-24.482-.254-19.339-.416-27.218-.281-13.753-3.522-14.949-3.522-14.949Z" transform="translate(-1042.429 -1591.293)"/><path class="f" d="M1071.5,1666.257l28.472,1.866a107,107,0,0,1-14.767.559c-5.75-.406-13.067,2.587-13.067,2.587s-.778,13.043-2.441,22.513-2.484,9.69,1.883,14.459,10.175-.325,4.367,4.768-9.01,4.542-9.517,8.272-3.1,1.834,6.089,5.06,33.257,1.024,34.385,2.253,6.276,4.379-8.026,4.26a96.564,96.564,0,0,0-12.94,1.2c-14.891-2.118-22.507-7.972-22.507-7.972a229.367,229.367,0,0,0,.634-48.485c-.3-3.316-.662-6.439-1.056-9.413l10.183-27.743Z" transform="translate(-1056.944 -1608.634)"/><path class="e" d="M1086.552,1639.127l-2.609,3.781s-4.167,2.361-4.6-.3-.658-4-.658-4l6.876-1.7Z" transform="translate(-1044.923 -1607.388)"/><path class="e" d="M1084.567,1642.635s1.173,49.139,1.942,53.587.868,14.5.868,14.5l-4.805,9.637-3.282-10.167,3.769-67.657Z" transform="translate(-1046.136 -1609.372)"/></g><g transform="translate(0 76.754)"><g transform="translate(0)"><path class="h" d="M1130.378,1604.3s2.183,9.073,3.022,9.791,3.765,2.653,4.838,3.972,7.294,1.6,7.211-1.034-1.384-4.466-1.669-4.426-4.55-2.189-4.55-2.189-2.078.068-3.845-3.022S1129.98,1602.7,1130.378,1604.3Z" transform="translate(-1114.316 -1594.808)"/><path class="i" d="M1159.229,1620.49s.095-6.4.27-8.092-3.471-4.887-3.471-4.887l-8.506,1.219-10.964-4.844s-5.616-8.58-6-9.837-4.942-5.334-5.75-3.689,7.59,17.986,7.59,17.986l11.79,7.5,4.84,3.353s.2,10.576,2.345,12.341S1159.229,1620.49,1159.229,1620.49Z" transform="translate(-1124.747 -1589.975)"/></g><path class="f" d="M1119.243,1636.229s-1.066,18.593-2.606,37.226,1.073,19.39,3.253,20.387,11.357,2.5,11.5,1.724,6.868-27.811,4.843-32.469-4.374-26.869-4.374-26.869Z" transform="translate(-1096.308 -1606.295)"/><path class="g" d="M1137.563,1688.057a16.112,16.112,0,0,0-2.5,4.961c-1.1,3.308-1.837,1.47-6.756-1.018s-.594-1-.961-3.208-.956-10.658-.956-10.658l-.646-6.85,1.418-4.312s-.551-.968-1.418-5.561,2.564-13.123,2.564-13.123l9.259-2.415h-10.4l-.166-4.682,10.57-2.017-11.976.675c-.345,5.705-1.255,20.142-2.453,34.645-1.541,18.633,1.073,19.39,3.253,20.387s11.358,2.5,11.5,1.724c.034-.184.446-1.879,1.018-4.376Z" transform="translate(-1102.806 -1607.334)"/></g><g transform="translate(87.329 88.18)"><g transform="translate(10.17)"><path class="h" d="M1016.422,1627.844s.306,9.327-.311,10.242-2.925,3.559-3.608,5.114-6.606,3.485-7.226.92.147-4.673.432-4.709,3.806-3.32,3.806-3.32,2.021-.487,2.9-3.936S1016.38,1626.2,1016.422,1627.844Z" transform="translate(-1001.106 -1614.579)"/><path class="i" d="M986,1645.817s.03-5.9-.589-7.49,2.048-5.634,2.048-5.634l8.524-1.085,9.283-7.584s3.133-9.764,3.174-11.079,3.346-6.456,4.563-5.085-2.537,19.357-2.537,19.357l-9.372,10.363-3.775,4.518s-10.015,15-12,12.592C983.553,1652.545,986,1645.817,986,1645.817Z" transform="translate(-984.68 -1607.63)"/></g><path class="g" d="M1022.345,1662.154s-15.748,28.9-9.311,30.379c12.01,10.786,14.074,6.575,17.357,0v-24.391l2.486-3.174C1028.487,1667.29,1024.749,1665.308,1022.345,1662.154Z" transform="translate(-1011.488 -1626.867)"/></g><g transform="translate(20.329)"><g transform="translate(5.17 67.556)"><path class="h" d="M1091.784,1590.672l4.092,4.479v19c-2.837,4.507-6.5,4.879-9.7,2.595l-7-9.486-2.758-24.419Z" transform="translate(-1055.341 -1578.26)"/><path class="f" d="M1107.881,1577.4l-12.931,10.2-3.541,10.425,7.6-8.051,23.231,24.846-8.5-33.93Z" transform="translate(-1091.41 -1576.341)"/><path class="g" d="M1107.492,1575.763l-13.083,10.654-3.045,8.966,6.837-8.312,22.756,27.073-7.665-35.26Z" transform="translate(-1090.095 -1575.763)"/><path class="f" d="M1090.622,1576.71l13.053,38.52-7.876-35.381Z" transform="translate(-1072.331 -1576.097)"/><path class="f" d="M1060.252,1580.388l11.7,10.165.311,12.264s-1.4-10.149-2.194-9.075-16.042,19.544-16.042,19.544v-18.137l-5.787-7.5Z" transform="translate(-1013.493 -1577.395)"/></g><g transform="translate(52.344 34.18)"><path class="i" d="M1047.65,1528.684s6.3-6.8,8.895-3.671,5.227,10.387-.679,13.733-8.777-5.115-8.777-5.115Z" transform="translate(-1047.089 -1524.191)"/><path class="h" d="M1047.089,1538.183c1.571-.029,3.674-.6,6.231-2.7,5.594-4.6-.186-10.793-.316-10.93,0,0,.317.233.749.556l.036.033c2.591,3.127,5.227,10.387-.679,13.733A4.691,4.691,0,0,1,1047.089,1538.183Z" transform="translate(-1044.334 -1524.318)"/><path class="j" d="M1058.838,1531.833a10.877,10.877,0,0,0-3.02,1.614,13.474,13.474,0,0,0-2.082,2.545.283.283,0,0,1-.38.079.262.262,0,0,1-.108-.185,3.192,3.192,0,0,1,.382-1.984,4.082,4.082,0,0,1,1.393-1.511,5.521,5.521,0,0,1,3.762-.986.22.22,0,0,1,.2.241A.223.223,0,0,1,1058.838,1531.833Z" transform="translate(-1050.611 -1526.727)"/><path class="j" d="M1055.361,1533.819a6.141,6.141,0,0,1,1.864.922,2.247,2.247,0,0,1,1.041,1.837.229.229,0,0,1-.451.037c-.235-1.063-1.635-1.416-2.685-1.525l-.033,0a.65.65,0,1,1,.136-1.293A.663.663,0,0,1,1055.361,1533.819Z" transform="translate(-1050.729 -1527.577)"/></g><path class="i" d="M1075.334,1480.934s13.054,1.9,13.623,2.192,12.219,13.476,12.628,21.146-.974,4.776.191,10.307,3.409,4.1,3.644,10.3-7.085,22.51-12.009,29.924c-.778,1.171-4.893,3.848-9.164,3.572s-16.017-10.49-17.627-11.983-9.651-8.811-10.047-14.013-.083-14.812-.686-21.28-.815-20.478,7.093-26.194S1075.334,1480.934,1075.334,1480.934Z" transform="translate(-1046.262 -1474.661)"/><path class="h" d="M1062.37,1573.793a55.923,55.923,0,0,1-5.134-6.7c6.5,7.344,16.046,16.353,23.255,15.609,12.023-1.241,14.435-15.05,18.786-22.655.353-.617.591-1.149.856-1.7a103.008,103.008,0,0,1-10.973,23.858c-.778,1.171-4.892,3.848-9.164,3.572S1063.979,1575.285,1062.37,1573.793Z" transform="translate(-1042.012 -1502.061)"/><g transform="translate(0 39.747)"><path class="i" d="M1138.217,1535.142s-8.028-4.634-9.582-.883-1.93,11.466,4.7,12.921,6.878-7.477,6.878-7.477Z" transform="translate(-1127.686 -1532.794)"/><path class="h" d="M1140.936,1545.11c-1.509.436-3.686.513-6.75-.742-6.7-2.747-3.007-10.369-2.923-10.537,0,0-.234.317-.552.753l-.025.042c-1.553,3.752-1.93,11.466,4.7,12.921A4.691,4.691,0,0,0,1140.936,1545.11Z" transform="translate(-1129.737 -1533.159)"/><path class="j" d="M1131.834,1539.924a5.524,5.524,0,0,1,3.886-.168,4.08,4.08,0,0,1,1.776,1.033,3.178,3.178,0,0,1,.95,1.782.262.262,0,0,1-.209.308.258.258,0,0,1-.208-.049,13.641,13.641,0,0,0-2.759-1.832,10.691,10.691,0,0,0-3.337-.65.242.242,0,0,1-.235-.232A.222.222,0,0,1,1131.834,1539.924Z" transform="translate(-1128.522 -1535.153)"/><path class="j" d="M1137.061,1541.942c-.971.415-2.207,1.145-2.117,2.23a.247.247,0,0,1-.208.266.228.228,0,0,1-.232-.148,2.248,2.248,0,0,1,.452-2.062,6.18,6.18,0,0,1,1.509-1.431.65.65,0,1,1,.629,1.131Z" transform="translate(-1129.308 -1535.577)"/></g><path class="k" d="M1070.93,1532.838c.135,2.031,1.345,3.6,2.7,3.515s2.351-1.809,2.215-3.84-1.344-3.6-2.7-3.515S1070.8,1530.807,1070.93,1532.838Z" transform="translate(-1026.595 -1491.706)"/><path class="k" d="M1096.9,1534.823c.135,2.031,1.345,3.6,2.7,3.514s2.351-1.809,2.216-3.84-1.345-3.6-2.7-3.514S1096.764,1532.791,1096.9,1534.823Z" transform="translate(-1069.371 -1492.406)"/><path class="h" d="M1090.006,1547.467c-.418.307-.665,2.951-3.714,3a14.215,14.215,0,0,1-6.241-1.8s1.841-.242,5.076-.885A13.8,13.8,0,0,1,1090.006,1547.467Z" transform="translate(-1046.652 -1498.193)"/><path class="l" d="M1077.9,1511.458s-3.416-4.157-4.469-4.326a3.666,3.666,0,0,0-1.708.072s-.839.905-.174,1.082,6.2,4.119,6.274,3.646Z" transform="translate(-1028.884 -1483.971)"/><path class="l" d="M1104.459,1514.132s2.907-4.521,3.971-4.762a3.865,3.865,0,0,1,1.78-.032s1.008.886.345,1.11-5.794,4.655-5.946,4.169Z" transform="translate(-1083.223 -1484.741)"/><g transform="translate(5.811)"><path class="l" d="M1062.736,1471.378s2.721,2.957,6.151,3.315,5.562-.848,9.325-.146,4.855-.672,6.9-1.6,5.688.43,8.727,1.4,2.373-.3,6.046.294,4.1,2.307,5.472,6.4a6.333,6.333,0,0,1-.751,5.48c2.123,3.115,5.892,9.061,6.044,12.237a51.134,51.134,0,0,1-.956,10.253s-.175-7.535-1.219-9.672c-.895-1.835-8.736-13.788-10.95-17.154-2.367,2-16.823,2.681-24.964,2.111-1.509,5.642-6.568,13.2-7.117,18.153a60.479,60.479,0,0,0,.432,12.646l-1.685-2.015c-1.564-1.869-1.237-17.905-1.181-20.219l-.229,9.16a11.631,11.631,0,0,1-2.316-6.089c-.311-3.124,3.329-11.841,4.729-15.057C1063.331,1477.23,1062.736,1471.378,1062.736,1471.378Z" transform="translate(-1060.448 -1471.378)"/><path class="k" d="M1063.684,1478.9a9.876,9.876,0,0,0,7.338,4.669,115.487,115.487,0,0,0,17.659-.606c7.218-1.016,9.37-4.188,9.37-4.188l.657,2.685,5.728,10.3s3.534,5.727,4.05,7.573c.415,1.484.131,7.285,0,9.506-.047-1.47-.3-7.474-1.208-9.345-.9-1.834-8.736-13.787-10.951-17.154-2.368,2-16.822,2.681-24.964,2.111-1.509,5.642-6.568,13.2-7.117,18.153a59.018,59.018,0,0,0,.4,12.386l-.165.02-.815-.975a99.988,99.988,0,0,1-.276-12.467c.4-4.392,5.9-17.223,5.9-17.223a12.408,12.408,0,0,1-5.341-3.188l.054-.127c-1.865-3.647-2.46-9.5-2.46-9.5S1062.892,1477.6,1063.684,1478.9Z" transform="translate(-1059.18 -1471.434)"/></g><path class="m" d="M1093.409,1549.764s-8.369,8.691-24.915,4.077c0,0,6.834,16.715,10.827,18.194s6.236-.044,6.236-.044,3.857-.005,5.162-5.511S1092.235,1554.455,1093.409,1549.764Z" transform="translate(-1042.574 -1499.034)"/><path class="g" d="M1090.382,1564.414a36.85,36.85,0,0,1-8.063,2.4c-3.318.375-10.319-.73-10.319-.73s7.6,2.155,10.353,1.747S1090.382,1564.414,1090.382,1564.414Z" transform="translate(-1041.816 -1504.203)"/></g></g></g></svg>