<svg xmlns="http://www.w3.org/2000/svg" xmlns:xlink="http://www.w3.org/1999/xlink" width="512.775" height="370.963" viewBox="0 0 512.775 370.963"><defs><style>.a{fill:#fff;}.b{fill:#f5f7fb;}.c{fill:#913d3d;}.d{fill:#f5dc3a;}.e{fill:url(#a);}.f{fill:#b6a42c;}</style><linearGradient id="a" x1="-6.357" y1="0.674" x2="-6.345" y2="1.087" gradientUnits="objectBoundingBox"><stop offset="0" stop-color="#f5dc3a"/><stop offset="0.997"/></linearGradient></defs><g transform="translate(0 0)"><g transform="translate(337.92 41.734)"><g transform="translate(173.037 221.38)"><path class="a" d="M1865.471,730.239l-.293-.468q.762-.4,1.517-.817l.3.463Q1866.237,729.835,1865.471,730.239Z" transform="translate(-1865.178 -728.955)"/></g><g transform="translate(0)"><path class="a" d="M1526.295,378.668l-.008-.54c1.166-.014,2.344-.046,3.5-.094l.027.539C1528.651,378.622,1527.467,378.653,1526.295,378.668Zm-3.522-.009c-1.166-.02-2.35-.058-3.518-.112l.029-.539c1.162.054,2.34.091,3.5.111Zm10.557-.283-.046-.538c1.161-.083,2.334-.183,3.488-.3l.064.536C1535.677,378.192,1534.5,378.293,1533.33,378.376Zm-17.588-.045c-1.168-.089-2.346-.2-3.5-.319l.068-.536c1.151.122,2.323.229,3.484.317Zm24.588-.661-.083-.534c1.15-.151,2.313-.32,3.459-.505l.1.532C1542.656,377.348,1541.485,377.519,1540.33,377.67Zm-31.582-.081c-1.154-.157-2.323-.334-3.474-.526l.1-.531c1.144.191,2.307.366,3.455.523Zm38.518-1.039-.12-.528c1.134-.218,2.283-.456,3.416-.709l.139.525C1549.561,376.092,1548.406,376.332,1547.266,376.551Zm-45.445-.116c-1.144-.226-2.3-.473-3.441-.733l.142-.524c1.133.259,2.284.5,3.422.73Zm52.289-1.411-.157-.52c1.116-.284,2.246-.59,3.359-.909l.175.515C1556.367,374.43,1555.231,374.737,1554.109,375.023Zm-59.141-.156c-1.126-.293-2.263-.608-3.378-.934l.178-.514c1.11.325,2.24.637,3.36.93Zm65.862-1.772-.193-.51c1.1-.35,2.2-.722,3.289-1.105l.211.5C1563.046,372.37,1561.933,372.743,1560.83,373.1Zm-72.583-.2c-1.1-.358-2.212-.738-3.3-1.129l.214-.5c1.085.389,2.191.767,3.286,1.124Zm79.157-2.123-.228-.5c1.067-.413,2.146-.848,3.208-1.294l.245.491C1569.563,369.926,1568.478,370.363,1567.4,370.778Zm-85.722-.232c-1.075-.422-2.157-.865-3.217-1.318l.248-.489c1.054.45,2.13.891,3.2,1.311Zm92.125-2.462-.261-.483c1.041-.475,2.089-.971,3.113-1.475l.278.476C1575.907,367.108,1574.854,367.607,1573.807,368.084Zm-98.51-.265c-1.038-.48-2.087-.984-3.119-1.5l.281-.474c1.026.511,2.069,1.013,3.1,1.491Zm-6.183-3.084c-1-.538-2.016-1.1-3.01-1.67l.312-.457c.989.567,2,1.126,2.995,1.661Zm-5.964-3.423c-.971-.6-1.944-1.212-2.893-1.833l.341-.439c.943.617,1.912,1.231,2.878,1.824Zm-5.725-3.744c-.932-.649-1.864-1.318-2.768-1.987l.369-.42c.9.666,1.827,1.331,2.755,1.976Zm-5.472-4.046c-.885-.694-1.772-1.411-2.637-2.131l.4-.4c.861.716,1.743,1.429,2.624,2.12Zm-5.2-4.33c-.84-.741-1.681-1.5-2.5-2.265l.419-.379c.813.759,1.649,1.517,2.486,2.254Zm-4.924-4.594c-.794-.783-1.586-1.588-2.354-2.391l.442-.356c.765.8,1.553,1.6,2.342,2.379Zm-4.633-4.84c-.744-.822-1.485-1.665-2.2-2.506l.462-.334c.716.838,1.454,1.677,2.194,2.495Zm-4.339-5.076c-.694-.86-1.386-1.742-2.057-2.623l.481-.31c.668.877,1.357,1.755,2.048,2.611Zm-4.035-5.3c-.643-.895-1.281-1.81-1.9-2.722l.5-.285c.614.907,1.25,1.819,1.89,2.71Zm-3.715-5.49c-.588-.924-1.172-1.87-1.736-2.812l.516-.26c.56.938,1.142,1.879,1.728,2.8Zm-3.389-5.665c-.536-.957-1.065-1.93-1.57-2.893l.53-.234c.5.958,1.028,1.927,1.562,2.88Zm-3.055-5.823c-.477-.974-.949-1.972-1.4-2.965l.543-.208c.45.988.919,1.982,1.394,2.952Zm-2.716-5.963c-.42-.994-.833-2.013-1.229-3.028l.554-.182c.394,1.011.806,2.026,1.224,3.015Zm-2.372-6.085c-.365-1.019-.72-2.056-1.056-3.083l.563-.155c.334,1.022.688,2.055,1.051,3.069Zm-2.024-6.189c-.306-1.031-.6-2.084-.881-3.129l.571-.128c.277,1.04.573,2.089.877,3.115Zm-1.674-6.277c-.248-1.045-.485-2.11-.7-3.166l.577-.1c.219,1.051.455,2.112.7,3.152Zm-1.322-6.347c-.189-1.055-.368-2.129-.528-3.195l.582-.074c.16,1.061.337,2.131.526,3.181Zm-.969-6.4c-.132-1.066-.25-2.148-.352-3.215l.585-.047c.1,1.062.219,2.139.35,3.2Zm-.617-6.437c-.073-1.071-.133-2.157-.177-3.228l.588-.02c.044,1.065.1,2.147.176,3.214Zm-.267-6.452q-.012-.868-.013-1.739,0-.747.009-1.492l.588.006q-.01.742-.009,1.486,0,.867.013,1.732Zm.667-6.442-.587-.02c.042-1.074.1-2.16.171-3.227l.587.033C1407.463,253.663,1407.406,254.745,1407.364,255.815Zm.427-6.423-.586-.046c.1-1.071.217-2.154.346-3.216l.585.06C1408.006,247.248,1407.891,248.325,1407.791,249.392Zm.777-6.4-.582-.073c.159-1.065.335-2.141.522-3.2l.58.087C1408.9,240.865,1408.726,241.935,1408.568,243Zm1.127-6.351-.578-.1c.219-1.061.454-2.127.7-3.167l.574.114C1410.147,234.528,1409.912,235.589,1409.695,236.646Zm1.478-6.29-.571-.127c.275-1.041.569-2.094.874-3.13l.568.141C1411.74,228.271,1411.447,229.32,1411.173,230.356Zm1.828-6.212-.563-.154c.335-1.03.687-2.067,1.05-3.085l.558.168C1413.686,222.085,1413.335,223.119,1413,224.144Zm2.176-6.117-.554-.181c.39-1.007.8-2.026,1.223-3.03l.548.194C1415.976,216.01,1415.566,217.025,1415.177,218.027Zm2.521-6-.542-.207c.45-.994.919-1.993,1.394-2.968l.537.22C1418.614,210.039,1418.147,211.033,1417.7,212.023Zm2.861-5.874-.53-.233c.5-.965,1.03-1.939,1.563-2.9l.523.246C1421.584,204.218,1421.061,205.188,1420.559,206.149Zm3.2-5.727-.516-.259c.558-.937,1.139-1.884,1.729-2.815l.508.271C1424.89,198.547,1424.31,199.49,1423.755,200.423Zm3.524-5.561-.5-.284c.613-.909,1.25-1.826,1.892-2.725l.492.3C1428.524,193.043,1427.89,193.956,1427.28,194.862Zm3.854-5.387-.482-.308c.666-.879,1.359-1.766,2.058-2.635l.473.32C1432.487,187.717,1431.8,188.6,1431.133,189.474Zm4.176-5.193-.463-.332c.725-.852,1.47-1.7,2.214-2.526l.453.344C1436.772,182.587,1436.031,183.433,1435.309,184.281Zm4.482-4.97-.442-.356c.771-.807,1.566-1.617,2.363-2.407l.431.367C1441.349,177.7,1440.558,178.507,1439.791,179.311Zm4.777-4.73-.42-.378c.82-.767,1.664-1.534,2.508-2.279l.408.389C1446.224,173.055,1445.384,173.818,1444.568,174.581Zm5.061-4.47-.395-.4c.87-.725,1.76-1.446,2.646-2.142l.382.41C1451.381,168.673,1450.5,169.39,1449.629,170.112Zm5.332-4.191-.37-.42c.912-.675,1.846-1.347,2.776-1.995l.356.43C1456.8,164.581,1455.869,165.248,1454.961,165.92Zm5.588-3.894-.341-.44c.955-.625,1.93-1.244,2.9-1.838l.326.449C1462.47,160.789,1461.5,161.4,1460.549,162.027Zm5.828-3.578-.312-.458c.992-.57,2.006-1.133,3.013-1.673l.3.466C1468.373,157.322,1467.364,157.882,1466.377,158.449Zm6.049-3.244-.281-.474c1.031-.514,2.08-1.019,3.118-1.5l.264.482C1474.495,154.192,1473.452,154.693,1472.427,155.2Zm104.13-.346c-1.022-.5-2.07-1-3.115-1.472l.261-.483c1.05.478,2.1.976,3.131,1.48Zm-97.88-2.547-.249-.489c1.059-.453,2.139-.9,3.211-1.317l.231.5C1480.8,151.421,1479.73,151.862,1478.677,152.312Zm91.6-.308c-1.058-.444-2.139-.878-3.209-1.29l.227-.5c1.076.414,2.161.851,3.226,1.3Zm-85.173-2.218-.215-.5c1.089-.391,2.2-.77,3.291-1.127l.2.509C1487.29,149.02,1486.188,149.4,1485.106,149.786Zm78.712-.269c-1.085-.382-2.193-.752-3.291-1.1l.193-.51c1.1.351,2.217.724,3.309,1.107Zm-72.13-1.877-.179-.514c1.109-.325,2.239-.639,3.359-.932l.161.519C1493.915,147,1492.792,147.316,1491.689,147.639Zm65.511-.23c-1.111-.317-2.241-.622-3.36-.906l.156-.52c1.126.285,2.262.592,3.379.911Zm-58.786-1.527-.143-.523c1.134-.261,2.288-.508,3.429-.734l.124.528C1500.689,145.377,1499.541,145.623,1498.413,145.882Zm52.034-.186c-1.132-.251-2.281-.489-3.418-.706l.12-.528c1.142.218,2.3.457,3.436.71Zm-45.19-1.173-.106-.531c1.152-.193,2.321-.371,3.473-.529l.087.534C1507.565,144.154,1506.4,144.331,1505.258,144.523Zm38.332-.137c-1.146-.183-2.31-.352-3.46-.5l.083-.534c1.156.15,2.327.32,3.479.5Zm-31.407-.813-.068-.536c1.161-.125,2.339-.233,3.5-.323l.049.537C1514.509,143.34,1513.337,143.449,1512.183,143.572Zm24.472-.087c-1.153-.115-2.326-.215-3.488-.3l.045-.538c1.168.082,2.348.182,3.507.3Zm-17.493-.452-.03-.539c1.167-.055,2.351-.094,3.519-.116l.012.54C1521.5,142.939,1520.322,142.978,1519.161,143.033Zm10.508-.037c-1.157-.047-2.335-.077-3.5-.09l.007-.54c1.172.013,2.357.043,3.52.091Z" transform="translate(-1406.684 -142.366)"/></g><g transform="translate(173.037 13.639)"><path class="a" d="M1866.7,179.788q-.755-.413-1.517-.817l.293-.468q.766.4,1.525.821Z" transform="translate(-1865.179 -178.504)"/></g></g><g transform="translate(0)"><ellipse class="b" cx="198.499" cy="185.481" rx="198.499" ry="185.481" transform="translate(4.547)"/><g transform="translate(0 221.581)"><g transform="translate(0 18.303)"><path class="c" d="M487.511,832.469c-.951-.611-1.443-.949-1.463-.963l1.411-1.727s.486.334,1.4.922Z" transform="translate(-486.048 -829.779)"/></g><g transform="translate(4.413 3.082)"><path class="c" d="M633.159,846.409l-1.144,0,.012-2.159q1.749.007,3.516-.009l.024,2.159Q634.36,846.409,633.159,846.409Zm-4.7-.044c-1.179-.022-2.373-.053-3.551-.091l.084-2.158c1.165.038,2.348.069,3.516.091Zm10.658-.027-.061-2.158c1.162-.028,2.344-.064,3.514-.109l.1,2.157C641.488,846.273,640.294,846.31,639.12,846.338Zm-17.757-.206c-1.17-.055-2.363-.119-3.547-.191l.156-2.154c1.171.072,2.352.135,3.511.189Zm24.856-.066-.134-2.155c1.164-.061,2.344-.132,3.509-.209l.171,2.153C648.588,845.933,647.4,846.005,646.219,846.067Zm-31.945-.365c-1.176-.088-2.366-.185-3.539-.289l.226-2.149c1.161.1,2.339.2,3.5.286Zm39.031-.109-.208-2.15c1.166-.1,2.344-.2,3.5-.31l.244,2.147C655.673,845.391,654.483,845.5,653.306,845.592Zm-46.1-.518c-1.168-.119-2.355-.249-3.528-.386l.3-2.142c1.162.135,2.336.264,3.492.382Zm53.169-.161-.281-2.144c1.155-.127,2.329-.266,3.488-.411l.318,2.139C662.725,844.645,661.539,844.785,660.372,844.914Zm-60.217-.658c-1.161-.151-2.343-.313-3.513-.481l.363-2.133c1.159.167,2.33.327,3.479.476Zm67.257-.223-.355-2.134c1.156-.162,2.324-.334,3.472-.511l.391,2.129C669.76,843.695,668.58,843.869,667.412,844.032Zm-74.275-.786c-1.159-.182-2.336-.376-3.5-.574l.431-2.123c1.149.2,2.315.388,3.463.569Zm81.281-.3-.427-2.123c1.151-.2,2.313-.4,3.453-.611l.463,2.117C676.755,842.543,675.581,842.751,674.418,842.948Zm-88.265-.9c-1.155-.214-2.325-.438-3.477-.666l.5-2.11q1.709.34,3.444.66Zm95.231-.388-.5-2.11c1.143-.228,2.3-.466,3.43-.709l.534,2.1C683.7,841.192,682.538,841.433,681.384,841.663Zm-102.173-.99q-1.741-.37-3.455-.756l.561-2.1q1.7.383,3.423.749Zm109.091-.493-.57-2.094c1.127-.259,2.272-.53,3.4-.807l.6,2.086C690.6,839.646,689.441,839.92,688.3,840.181Zm-115.99-1.064q-1.73-.414-3.43-.844l.624-2.082q1.685.426,3.4.837Zm122.855-.614-.64-2.077c1.118-.29,2.254-.594,3.377-.9l.674,2.068C697.444,837.9,696.3,838.21,695.168,838.5Zm-129.7-1.117q-1.719-.458-3.4-.93l.686-2.065q1.669.468,3.373.922Zm136.507-.752-.708-2.058c1.114-.323,2.24-.658,3.345-1l.742,2.048C704.235,835.969,703.1,836.307,701.974,836.633Zm-143.3-1.151q-1.706-.5-3.375-1.015l.747-2.047q1.654.509,3.344,1.006Zm150.042-.906-.776-2.038c1.1-.353,2.214-.718,3.312-1.087l.808,2.027C710.949,833.851,709.825,834.22,708.714,834.576ZM551.938,833.41q-1.692-.544-3.343-1.1l.806-2.028q1.637.548,3.314,1.088Zm163.446-1.075-.84-2.016c1.089-.382,2.191-.778,3.276-1.176l.872,2C717.6,831.549,716.484,831.949,715.384,832.335Zm-170.118-1.162q-1.679-.586-3.311-1.179l.865-2.007q1.618.588,3.281,1.169Zm176.713-1.257-.9-1.993c1.079-.413,2.168-.837,3.237-1.262l.935,1.981C724.168,829.071,723.069,829.5,721.979,829.916Zm-183.318-1.142q-1.665-.628-3.275-1.26l.923-1.985q1.6.626,3.247,1.249Zm189.834-1.45-.965-1.969q1.6-.66,3.2-1.347l.995,1.956Q730.107,826.658,728.5,827.324Zm-196.366-1.11q-1.65-.67-3.238-1.34l.98-1.962q1.574.663,3.209,1.328Zm202.8-1.649-1.025-1.943q1.576-.7,3.156-1.428l1.054,1.93Q736.519,823.858,734.929,824.565Zm-209.256-1.07q-1.637-.714-3.2-1.42l1.038-1.937q1.547.7,3.169,1.406Zm215.6-1.852-1.083-1.917q1.555-.739,3.112-1.506l1.11,1.9Q742.845,820.9,741.276,821.643ZM519.3,820.615q-1.623-.759-3.155-1.5l1.1-1.91q1.518.734,3.126,1.487Zm228.238-2.049-1.137-1.889q1.533-.778,3.068-1.581l1.164,1.876Q749.08,817.781,747.534,818.566Zm-234.525-.992c-1.037-.519-2.084-1.052-3.109-1.583l1.156-1.88c1.015.526,2.051,1.054,3.079,1.568ZM753.7,815.339l-1.19-1.861q1.51-.815,3.023-1.654l1.216,1.847Q755.225,814.518,753.7,815.339Zm-246.885-.974c-1.027-.552-2.055-1.114-3.056-1.672l1.22-1.845c.99.552,2.007,1.108,3.023,1.654Zm252.959-2.4-1.241-1.833q1.488-.849,2.977-1.723l1.266,1.819Q761.277,811.112,759.776,811.968Zm-259.042-1c-1.025-.594-2.032-1.191-2.994-1.774l1.3-1.8c.949.576,1.943,1.164,2.954,1.751Zm265.022-2.512-1.29-1.8q1.464-.883,2.931-1.79l1.314,1.79Q767.233,807.57,765.757,808.459Zm5.886-3.64-1.337-1.776q1.441-.915,2.884-1.853l1.359,1.761Q773.095,803.9,771.642,804.819Zm5.789-3.766-1.381-1.747q1.418-.945,2.837-1.914l1.4,1.733Q778.86,800.1,777.431,801.053Zm5.694-3.886-1.424-1.718q1.395-.974,2.791-1.972l1.445,1.7Q784.529,796.185,783.125,797.167Zm5.6-4-1.465-1.689q1.371-1,2.744-2.028l1.484,1.675Q790.1,792.156,788.723,793.166Z" transform="translate(-497.74 -789.449)"/></g><g transform="translate(299.385 0)"><path class="c" d="M1280.829,783.977l-1.5-1.66q.675-.514,1.349-1.035l1.512,1.654Q1281.507,783.46,1280.829,783.977Z" transform="translate(-1279.326 -781.282)"/></g></g><g transform="translate(242.689 90.107)"><path class="d" d="M1404.652,369.678l-238.178,84.107,48.374,19.613Z" transform="translate(-1166.474 -369.678)"/><path class="e" d="M1484.454,369.678l-182.341,146.68-7.463-42.96Z" transform="translate(-1246.276 -369.678)"/><path class="d" d="M1509.94,369.678l-163.9,190.44L1335.584,489.6Z" transform="translate(-1271.762 -369.678)"/><path class="f" d="M1322.411,687.443l-7.985,26.755,10.732-8.229Z" transform="translate(-1258.589 -567.518)"/></g></g></g></svg>