<svg xmlns="http://www.w3.org/2000/svg" width="157.599" height="55" viewBox="0 0 157.599 55"><defs><style>.a,.b{fill:#fff;}.b{font-size:39px;font-family:Poppins-Bold, Poppins;font-weight:700;letter-spacing:0.06em;}</style></defs><g transform="translate(0 11.258)"><path class="a" d="M1379.419,949.925a10.725,10.725,0,0,1-5.71-1.583c.367.107.716.187,1.032.247a11.452,11.452,0,0,0,1.456.187l.1.005c.074,0,.147.007.224.007s.151,0,.224-.007l.095,0a11.464,11.464,0,0,0,1.465-.187c1.9-.364,4.427-1.311,5.647-3.751,1.239-2.479.809-5.917-1.279-10.222l-.041-.085c-2.087-4.271-2.325-7.753-.706-10.346,1.972-3.159,6.034-3.994,7.906-3.994a3.935,3.935,0,0,1,1.156.138v18.464c-.186,3.1-1.381,8.612-7.283,10.439a14.559,14.559,0,0,1-4.289.693Z" transform="translate(-1363.14 -920.191)"/><path class="a" d="M1379.419,949.925a10.725,10.725,0,0,1-5.71-1.583c.367.107.716.187,1.032.247a11.452,11.452,0,0,0,1.456.187l.1.005c.074,0,.147.007.224.007s.151,0,.224-.007l.095,0a11.464,11.464,0,0,0,1.465-.187c1.9-.364,4.427-1.311,5.647-3.751,1.239-2.479.809-5.917-1.279-10.222l-.041-.085c-2.087-4.271-2.325-7.753-.706-10.346,1.972-3.159,6.034-3.994,7.906-3.994a3.935,3.935,0,0,1,1.156.138v18.464c-.186,3.1-1.381,8.612-7.283,10.439a14.559,14.559,0,0,1-4.289.693Z" transform="translate(-1363.14 -920.191)"/><path class="a" d="M1075.6,949.546h0l-.012,0a11.921,11.921,0,0,1-1.225.455c-.438.136-.872.248-1.3.346l0,0-.056.007a15.058,15.058,0,0,1-2.575.354c-.2.01-.4.016-.591.018h-.015a11.913,11.913,0,0,1-6.781-1.839h0a9.157,9.157,0,0,1-3.943-5.121c-.017-.058-.034-.116-.049-.177-.026-.1-.048-.2-.069-.3-.014-.068-.028-.137-.04-.206-.018-.1-.034-.2-.049-.307-.009-.069-.017-.141-.027-.231s-.021-.207-.028-.315c0-.065-.007-.132-.009-.2l0-.1c0-.09-.007-.181-.006-.274,0-.077,0-.156.006-.235l.005-.154c0-.072,0-.145.008-.219q.019-.3.058-.617c.007-.059.017-.121.026-.182l.018-.121c.019-.124.036-.248.06-.378.013-.072.062-.308.062-.308.027-.134.055-.268.087-.406.021-.089.082-.327.082-.327.036-.14.074-.282.116-.427.031-.111.066-.223.1-.337.047-.15.1-.3.148-.456.038-.114.077-.227.118-.343.058-.163.122-.33.186-.5,0,0,.1-.25.131-.337.076-.188.159-.382.244-.577l.127-.3c.121-.27.248-.545.385-.828l.041-.085c2.088-4.271,2.325-7.753.706-10.346-1.972-3.159-6.034-3.994-7.906-3.994a3.936,3.936,0,0,0-1.156.138v18.854c0,10.713,7.768,14.515,14.433,14.514h.082c5.15,0,10.969-2.279,13.334-8.28A10.105,10.105,0,0,1,1075.6,949.546Z" transform="translate(-1052.473 -920.191)"/></g><g transform="translate(31.599)"><g transform="translate(0)"><text class="b" transform="translate(0 41)"><tspan x="0" y="0">teach</tspan></text></g></g></svg>